<svg xmlns="http://www.w3.org/2000/svg" viewBox="0 0 463.61 204.88">
  <path d="M59.4 55.14q10.77 0 24.88-5.37v23.08a83.26 83.26 0 01-9 2.46A29.64 29.64 0 0177.11 85a38.53 38.53 0 01-8.63 25 34.19 34.19 0 01-22.3 12.67q-9 1.32-9 9.63c0 1.94 1 3.89 2.92 5.83q3.79 4.26 11.21 5.38 32 4.92 32.05 26.68 0 34.73-41.47 34.74-17 0-28-6Q0 191.21 0 174.84 0 156 20.85 149.06v-.45q-7.62-4.7-7.62-14.34 0-12.57 7.17-15.69v-.45q-7.17-2.46-12.77-11.21a35.65 35.65 0 01-6.28-20.17q0-16.14 11.43-26.9A37.44 37.44 0 0139 49.77a40.35 40.35 0 0120.4 5.37zM60.3 173q0-11.43-18.83-11.43-18.16 0-18.15 11.89 0 11.64 19.72 11.64 17.25 0 17.26-12.1zM25.78 87q0 15.47 14.12 15.47 13.68 0 13.67-15.69a19.77 19.77 0 00-3.13-11.21 12.38 12.38 0 00-10.54-5.18q-14.12 0-14.12 16.61zM108.05 33.4A14.63 14.63 0 0197 28.47a16.51 16.51 0 01-4.6-11.66A16.79 16.79 0 0197 4.93 14.63 14.63 0 01108.05 0a14.39 14.39 0 0110.87 4.93 16.79 16.79 0 014.6 11.88 16.51 16.51 0 01-4.6 11.66 14.39 14.39 0 01-10.87 4.93zM95.72 150.4V50.88h24.43v99.52zM167 50.88h19.5v21.3H167v41.69q0 15 9.86 15a21.8 21.8 0 0012.55-3.81v22.41q-8.29 4.5-20 4.48-16.35 0-22.63-11.65-4.71-8.74-4.71-27.57V72.18h-10.73v-21.3h11V32.06H167v18.82zM201.12 50.2v100.2h24.43V81.15q7.84-7.41 15.24-7.4 8.53 0 13 8.51 3.36 6.74 3.36 16.81l-.15 30.27v21.06h25V99.07q0-19.48-8.73-33.17-9.87-15.69-27.58-15.69-9.63 0-20.17 6.73V50.2M325.07 151.3q-17.7 0-26.22-15.68-6.72-12.8-6.72-33.4V50.88h24.95V72l-.08 30.22q0 12.77 2.92 18.37 3.38 7 12.33 7 6.28 0 14.11-7.41v-69.3H371v99.52h-24v-8.06q-10.33 9-22 9zM426 151.08a26.32 26.32 0 01-20.17-8.74v8.06H382.7V.9h24.44v55.82q10.29-6.51 20.16-6.51 17.7 0 27.8 15.69 8.52 13.68 8.51 33.17 0 20-9 34.75-10.71 17.27-28.61 17.26zm-3.4-77.33q-7.39 0-15.46 7.4v38.77q7.16 7 14.11 7 8.73 0 13.23-9.64 3.58-7.61 3.57-18.16 0-25.32-15.45-25.32z" fill="#fff"/>
</svg>
